<svg xmlns="http://www.w3.org/2000/svg" xmlns:xlink="http://www.w3.org/1999/xlink" width="72" zoomAndPan="magnify" viewBox="0 0 54 61.92" height="72" preserveAspectRatio="xMidYMid meet" version="1.2"><defs><clipPath id="524e2b9984"><path d="M 2.058594 2.003906 L 52.242188 2.003906 L 52.242188 52 L 2.058594 52 Z M 2.058594 2.003906 "/></clipPath></defs><g id="c6a2f82281"><g clip-rule="nonzero" clip-path="url(#524e2b9984)"><path style=" stroke:none;fill-rule:evenodd;fill:#749494;fill-opacity:1;" d="M 39.953125 2.003906 C 40.601562 2.003906 41.128906 2.53125 41.128906 3.175781 L 41.128906 7.199219 C 41.128906 7.84375 40.601562 8.371094 39.953125 8.371094 C 39.304688 8.371094 38.777344 7.84375 38.777344 7.199219 L 38.777344 3.175781 C 38.777344 2.53125 39.304688 2.003906 39.953125 2.003906 Z M 40.757812 28.644531 C 47.164062 28.644531 52.359375 33.839844 52.359375 40.25 C 52.359375 46.65625 47.164062 51.851562 40.757812 51.851562 C 34.347656 51.851562 29.152344 46.65625 29.152344 40.25 C 29.152344 33.839844 34.347656 28.644531 40.757812 28.644531 Z M 38.6875 42.398438 L 45.347656 35.738281 C 45.78125 35.304688 46.488281 35.304688 46.921875 35.738281 C 47.355469 36.171875 47.355469 36.878906 46.921875 37.3125 L 39.476562 44.757812 C 39.042969 45.191406 38.335938 45.191406 37.902344 44.757812 L 34.589844 41.449219 C 34.160156 41.015625 34.160156 40.308594 34.589844 39.875 C 35.023438 39.441406 35.734375 39.441406 36.164062 39.875 Z M 2.105469 11.277344 L 2.105469 42.195312 C 2.105469 45.546875 4.847656 48.289062 8.195312 48.289062 L 29.179688 48.289062 C 28.710938 47.613281 28.300781 46.894531 27.953125 46.140625 L 7.269531 46.140625 C 5.824219 46.140625 4.644531 44.960938 4.644531 43.515625 L 4.644531 18.308594 L 44.308594 18.308594 L 44.308594 26.644531 C 45.191406 26.875 46.042969 27.191406 46.847656 27.578125 L 46.847656 11.277344 C 46.847656 8.289062 44.664062 5.78125 41.8125 5.28125 L 41.8125 7.199219 C 41.8125 8.21875 40.976562 9.054688 39.953125 9.054688 C 38.929688 9.054688 38.09375 8.21875 38.09375 7.199219 L 38.09375 5.1875 L 10.859375 5.1875 L 10.859375 7.199219 C 10.859375 8.21875 10.023438 9.054688 9 9.054688 C 7.976562 9.054688 7.140625 8.21875 7.140625 7.199219 L 7.140625 5.28125 C 4.289062 5.78125 2.105469 8.289062 2.105469 11.277344 Z M 9 2.003906 C 9.648438 2.003906 10.175781 2.53125 10.175781 3.175781 L 10.175781 7.199219 C 10.175781 7.84375 9.648438 8.371094 9 8.371094 C 8.355469 8.371094 7.824219 7.84375 7.824219 7.199219 L 7.824219 3.175781 C 7.824219 2.53125 8.355469 2.003906 9 2.003906 Z M 21.394531 34.433594 L 27.660156 34.433594 L 27.660156 35.089844 C 27.027344 36.695312 26.675781 38.445312 26.675781 40.273438 C 26.675781 40.417969 26.679688 40.5625 26.683594 40.707031 L 21.394531 40.707031 Z M 10.953125 34.433594 L 17.222656 34.433594 L 17.222656 40.707031 L 10.953125 40.707031 Z M 31.910156 24.019531 L 38.179688 24.019531 L 38.179688 26.433594 C 35.832031 26.867188 33.691406 27.878906 31.910156 29.324219 Z M 21.394531 24.019531 L 27.660156 24.019531 L 27.660156 30.289062 L 21.394531 30.289062 Z M 10.953125 24.019531 L 17.222656 24.019531 L 17.222656 30.289062 L 10.953125 30.289062 Z M 10.953125 24.019531 "/></g></g></svg>