<svg xmlns="http://www.w3.org/2000/svg" xmlns:xlink="http://www.w3.org/1999/xlink" width="72" zoomAndPan="magnify" viewBox="0 0 54 61.92" height="72" preserveAspectRatio="xMidYMid meet" version="1.2"><defs><clipPath id="eafaf4af5f"><path d="M 5.328125 8 L 48.773438 8 L 48.773438 52 L 5.328125 52 Z M 5.328125 8 "/></clipPath><clipPath id="7ccaeb4bd9"><path d="M 22 2.042969 L 32 2.042969 L 32 6 L 22 6 Z M 22 2.042969 "/></clipPath></defs><g id="61c9788bc2"><g clip-rule="nonzero" clip-path="url(#eafaf4af5f)"><path style=" stroke:none;fill-rule:evenodd;fill:#749494;fill-opacity:1;" d="M 26.945312 51.886719 C 14.972656 51.886719 5.332031 42.152344 5.332031 30.273438 C 5.332031 19.566406 13.316406 10.316406 23.832031 8.855469 C 25.097656 8.660156 26.070312 8.660156 26.945312 8.660156 C 27.726562 8.660156 28.601562 8.660156 29.476562 8.757812 C 40.382812 10.121094 48.558594 19.273438 48.558594 30.273438 C 48.558594 42.152344 38.921875 51.886719 26.945312 51.886719 Z M 34.25 30.957031 L 26.945312 30.957031 C 26.558594 30.957031 26.167969 30.566406 26.167969 30.175781 L 26.167969 20.148438 C 26.167969 19.761719 26.558594 19.46875 26.945312 19.46875 C 27.335938 19.46875 27.628906 19.761719 27.628906 20.148438 L 27.628906 29.496094 L 34.25 29.496094 C 34.636719 29.496094 34.929688 29.886719 34.929688 30.273438 C 34.929688 30.664062 34.636719 30.957031 34.25 30.957031 Z M 20.230469 19.273438 C 19.9375 19.273438 19.742188 19.175781 19.546875 18.980469 L 18.574219 17.132812 C 18.378906 16.839844 18.476562 16.351562 18.867188 16.160156 C 19.160156 15.964844 19.546875 16.0625 19.839844 16.449219 L 20.8125 18.300781 C 21.007812 18.59375 20.910156 18.980469 20.519531 19.273438 C 20.421875 19.273438 20.328125 19.273438 20.230469 19.273438 Z M 15.265625 24.238281 C 15.167969 24.238281 15.070312 24.140625 14.972656 24.140625 L 13.121094 23.070312 C 12.832031 22.875 12.636719 22.484375 12.832031 22.097656 C 13.023438 21.804688 13.414062 21.609375 13.804688 21.804688 L 15.652344 22.875 C 15.945312 23.070312 16.042969 23.460938 15.945312 23.847656 C 15.75 24.042969 15.554688 24.238281 15.265625 24.238281 Z M 13.511719 30.957031 L 11.371094 30.957031 C 10.980469 30.957031 10.6875 30.566406 10.6875 30.175781 C 10.6875 29.789062 10.980469 29.496094 11.371094 29.496094 L 13.511719 29.496094 C 13.902344 29.496094 14.191406 29.789062 14.191406 30.175781 C 14.191406 30.566406 13.902344 30.957031 13.511719 30.957031 Z M 13.414062 38.746094 C 13.21875 38.746094 12.925781 38.550781 12.832031 38.355469 C 12.636719 38.0625 12.734375 37.578125 13.121094 37.382812 L 14.972656 36.3125 C 15.265625 36.117188 15.75 36.214844 15.945312 36.601562 C 16.140625 36.894531 15.945312 37.382812 15.652344 37.578125 L 13.804688 38.648438 C 13.707031 38.746094 13.511719 38.746094 13.414062 38.746094 Z M 19.160156 44.390625 C 19.0625 44.390625 18.964844 44.390625 18.867188 44.292969 C 18.476562 44.097656 18.378906 43.710938 18.574219 43.417969 L 19.644531 41.566406 C 19.839844 41.179688 20.328125 41.082031 20.617188 41.277344 C 20.910156 41.46875 21.007812 41.957031 20.8125 42.25 L 19.839844 44.097656 C 19.644531 44.292969 19.449219 44.390625 19.160156 44.390625 Z M 26.945312 46.53125 C 26.558594 46.53125 26.167969 46.242188 26.167969 45.753906 L 26.167969 43.710938 C 26.167969 43.320312 26.558594 42.929688 26.945312 42.929688 C 27.335938 42.929688 27.628906 43.320312 27.628906 43.710938 L 27.628906 45.753906 C 27.628906 46.242188 27.335938 46.53125 26.945312 46.53125 Z M 34.734375 44.390625 C 34.441406 44.390625 34.25 44.292969 34.054688 44.097656 L 33.078125 42.25 C 32.886719 41.957031 32.984375 41.46875 33.273438 41.277344 C 33.566406 41.082031 34.054688 41.179688 34.25 41.46875 L 35.320312 43.320312 C 35.515625 43.613281 35.417969 44.097656 35.027344 44.292969 C 34.929688 44.390625 34.832031 44.390625 34.734375 44.390625 Z M 40.382812 38.746094 C 40.285156 38.746094 40.1875 38.648438 40.089844 38.648438 L 38.238281 37.578125 C 37.949219 37.382812 37.753906 36.992188 37.949219 36.601562 C 38.140625 36.3125 38.53125 36.117188 38.921875 36.3125 L 40.769531 37.382812 C 41.0625 37.578125 41.160156 37.964844 41.0625 38.355469 C 40.867188 38.550781 40.671875 38.746094 40.382812 38.746094 Z M 42.523438 30.957031 L 40.382812 30.957031 C 39.992188 30.957031 39.601562 30.566406 39.601562 30.175781 C 39.601562 29.789062 39.992188 29.496094 40.382812 29.496094 L 42.523438 29.496094 C 42.914062 29.496094 43.203125 29.789062 43.203125 30.175781 C 43.203125 30.566406 42.914062 30.957031 42.523438 30.957031 Z M 38.628906 24.238281 C 38.335938 24.238281 38.140625 24.042969 37.949219 23.847656 C 37.753906 23.558594 37.949219 23.070312 38.238281 22.875 L 40.089844 21.804688 C 40.382812 21.609375 40.867188 21.707031 41.0625 22.097656 C 41.257812 22.390625 41.160156 22.875 40.769531 23.070312 L 38.921875 24.140625 C 38.824219 24.140625 38.726562 24.238281 38.628906 24.238281 Z M 33.664062 19.273438 C 33.566406 19.273438 33.371094 19.273438 33.273438 19.273438 C 32.984375 18.980469 32.886719 18.59375 32.984375 18.300781 L 34.054688 16.449219 C 34.25 16.0625 34.636719 15.964844 35.027344 16.160156 C 35.320312 16.351562 35.515625 16.742188 35.320312 17.132812 L 34.25 18.980469 C 34.152344 19.175781 33.859375 19.273438 33.664062 19.273438 Z M 26.945312 17.519531 C 26.558594 17.519531 26.167969 17.132812 26.167969 16.742188 L 26.167969 14.699219 C 26.167969 14.210938 26.558594 13.917969 26.945312 13.917969 C 27.335938 13.917969 27.628906 14.210938 27.628906 14.699219 L 27.628906 16.839844 C 27.628906 17.132812 27.335938 17.519531 26.945312 17.519531 Z M 26.945312 48.382812 C 16.917969 48.382812 8.742188 40.203125 8.742188 30.273438 C 8.742188 21.316406 15.457031 13.53125 24.316406 12.265625 C 25.195312 12.167969 26.070312 12.167969 26.945312 12.167969 C 27.628906 12.167969 28.308594 12.167969 28.992188 12.265625 L 29.089844 12.265625 C 38.238281 13.335938 45.054688 21.125 45.054688 30.273438 C 45.054688 40.203125 36.972656 48.382812 26.945312 48.382812 Z M 26.945312 13.53125 C 26.167969 13.53125 25.292969 13.53125 24.511719 13.722656 C 16.335938 14.894531 10.203125 22 10.203125 30.273438 C 10.203125 39.523438 17.699219 47.019531 26.945312 47.019531 C 36.195312 47.019531 43.691406 39.523438 43.691406 30.273438 C 43.691406 21.804688 37.363281 14.699219 28.992188 13.628906 L 28.894531 13.628906 C 28.210938 13.53125 27.628906 13.53125 26.945312 13.53125 Z M 26.945312 13.53125 "/></g><path style=" stroke:none;fill-rule:evenodd;fill:#749494;fill-opacity:1;" d="M 42.328125 16.742188 C 42.132812 16.742188 41.9375 16.644531 41.84375 16.546875 C 41.550781 16.351562 41.550781 15.964844 41.746094 15.671875 L 41.257812 15.085938 C 41.160156 15.28125 40.964844 15.28125 40.769531 15.28125 C 40.671875 15.28125 40.480469 15.183594 40.382812 15.085938 C 40.089844 14.796875 40.089844 14.40625 40.382812 14.113281 L 42.523438 11.777344 C 42.816406 11.484375 43.300781 11.484375 43.59375 11.777344 C 43.789062 12.070312 43.886719 12.457031 43.59375 12.75 L 44.082031 13.238281 C 44.375 13.042969 44.761719 13.042969 45.054688 13.335938 C 45.347656 13.628906 45.347656 14.015625 45.054688 14.308594 L 42.816406 16.546875 C 42.71875 16.742188 42.523438 16.742188 42.328125 16.742188 Z M 42.328125 16.742188 "/><path style=" stroke:none;fill-rule:evenodd;fill:#749494;fill-opacity:1;" d="M 45.734375 15.28125 C 45.25 15.28125 44.859375 15.085938 44.566406 14.699219 L 42.132812 12.265625 C 41.746094 11.972656 41.648438 11.582031 41.648438 11.097656 C 41.648438 10.707031 41.746094 10.316406 42.132812 9.925781 C 42.425781 9.636719 42.816406 9.441406 43.203125 9.441406 C 43.691406 9.441406 44.179688 9.636719 44.46875 9.925781 L 46.90625 12.363281 C 47.585938 13.042969 47.488281 14.113281 46.90625 14.699219 C 46.613281 15.085938 46.125 15.28125 45.734375 15.28125 Z M 45.734375 15.28125 "/><path style=" stroke:none;fill-rule:evenodd;fill:#749494;fill-opacity:1;" d="M 25.582031 10.121094 C 25.195312 10.121094 24.902344 9.734375 24.902344 9.34375 L 24.902344 5.15625 C 24.902344 4.769531 25.195312 4.476562 25.582031 4.476562 C 26.558594 4.476562 27.335938 4.476562 28.308594 4.476562 C 28.699219 4.476562 28.992188 4.769531 28.992188 5.15625 L 28.992188 9.34375 C 28.992188 9.734375 28.699219 10.023438 28.308594 10.023438 C 27.140625 10.023438 26.167969 10.121094 25.582031 10.121094 Z M 25.582031 10.121094 "/><g clip-rule="nonzero" clip-path="url(#7ccaeb4bd9)"><path style=" stroke:none;fill-rule:evenodd;fill:#749494;fill-opacity:1;" d="M 29.1875 5.9375 L 24.707031 5.9375 C 23.636719 5.9375 22.761719 5.058594 22.761719 3.988281 C 22.761719 2.917969 23.636719 2.042969 24.707031 2.042969 L 29.1875 2.042969 C 30.257812 2.042969 31.132812 2.917969 31.132812 3.988281 C 31.132812 5.058594 30.257812 5.9375 29.1875 5.9375 Z M 29.1875 5.9375 "/></g></g></svg>